<svg xmlns="http://www.w3.org/2000/svg" viewBox="0 0 800 800" role="img" aria-labelledby="title desc">
  <title id="title">LC coach upper-body character</title>
  <desc id="desc">A strict accountability-focused cartoon fitness coach in orange, amber, and charcoal tones.</desc>
  <defs>
    <linearGradient id="lcJacket" x1="194" x2="619" y1="505" y2="773" gradientUnits="userSpaceOnUse">
      <stop stop-color="#2A303B"/>
      <stop offset="0.62" stop-color="#171D27"/>
      <stop offset="1" stop-color="#0E121A"/>
    </linearGradient>
    <linearGradient id="lcAccent" x1="258" x2="620" y1="510" y2="762" gradientUnits="userSpaceOnUse">
      <stop stop-color="#FFB35E"/>
      <stop offset="0.55" stop-color="#F28A3A"/>
      <stop offset="1" stop-color="#A9571E"/>
    </linearGradient>
    <linearGradient id="lcSkin" x1="308" x2="498" y1="218" y2="452" gradientUnits="userSpaceOnUse">
      <stop stop-color="#FAD7B5"/>
      <stop offset="0.75" stop-color="#D89B70"/>
      <stop offset="1" stop-color="#B97755"/>
    </linearGradient>
    <linearGradient id="lcHair" x1="273" x2="531" y1="161" y2="321" gradientUnits="userSpaceOnUse">
      <stop stop-color="#303642"/>
      <stop offset="1" stop-color="#10141C"/>
    </linearGradient>
    <filter id="lcShadow" x="112" y="120" width="584" height="662" color-interpolation-filters="sRGB" filterUnits="userSpaceOnUse">
      <feDropShadow dx="0" dy="34" stdDeviation="33" flood-color="#914C1F" flood-opacity="0.21"/>
    </filter>
    <filter id="lcSoft" x="-20%" y="-20%" width="140%" height="140%" color-interpolation-filters="sRGB">
      <feGaussianBlur stdDeviation="12"/>
    </filter>
  </defs>

  <ellipse cx="400" cy="714" rx="232" ry="46" fill="#F28A3A" opacity="0.15" filter="url(#lcSoft)"/>
  <g filter="url(#lcShadow)">
    <path d="M188 733c18-127 100-219 212-219s194 92 212 219H188Z" fill="url(#lcJacket)"/>
    <path d="M314 533c44 47 128 47 172 0l25 200H289l25-200Z" fill="#F8F1E9"/>
    <path d="M282 535c34 71 71 128 118 171-71-16-124-52-170-105 8-29 25-51 52-66Z" fill="url(#lcAccent)"/>
    <path d="M518 535c-34 71-71 128-118 171 71-16 124-52 170-105-8-29-25-51-52-66Z" fill="#272E3A"/>
    <path d="M324 506c7 51 39 80 76 80s69-29 76-80v-40H324v40Z" fill="#D99B70"/>
    <path d="M325 485c30 33 120 33 150 0v43c-26 29-126 29-150 0v-43Z" fill="#B97858" opacity="0.55"/>

    <path d="M274 312c0-92 55-160 126-160s126 68 126 160v34c0 96-55 166-126 166s-126-70-126-166v-34Z" fill="url(#lcSkin)"/>
    <path d="M269 337c-29-4-49 16-44 48 5 32 29 52 57 47l-13-95Z" fill="#C98761"/>
    <path d="M531 337c29-4 49 16 44 48-5 32-29 52-57 47l13-95Z" fill="#C98761"/>
    <path d="M275 324c21-14 41-37 59-69 46 44 108 64 185 56-5-87-53-153-124-158-82-6-134 56-120 171Z" fill="url(#lcHair)"/>
    <path d="M297 321c54-9 95-34 121-75 24 32 60 51 109 58-12-90-59-142-130-150-75-8-128 51-122 170 6 2 13 1 22-3Z" fill="#171C26"/>
    <path d="M329 351c27-17 57-17 84-2" fill="none" stroke="#111827" stroke-linecap="round" stroke-width="14" opacity="0.45"/>
    <path d="M418 349c25-16 54-16 80 0" fill="none" stroke="#111827" stroke-linecap="round" stroke-width="14" opacity="0.45"/>
    <ellipse cx="359" cy="384" rx="12" ry="17" fill="#111827"/>
    <ellipse cx="447" cy="384" rx="12" ry="17" fill="#111827"/>
    <path d="M390 419c9 7 20 7 28 0" fill="none" stroke="#9C5F48" stroke-linecap="round" stroke-width="9" opacity="0.74"/>
    <path d="M355 451c27 13 62 13 91 0" fill="none" stroke="#6C382E" stroke-linecap="round" stroke-width="10"/>
    <circle cx="324" cy="421" r="18" fill="#E5A285" opacity="0.28"/>
    <circle cx="477" cy="421" r="18" fill="#E5A285" opacity="0.28"/>

    <path d="M238 665c59-54 125-72 198-54" fill="none" stroke="#F28A3A" stroke-linecap="round" stroke-width="30"/>
    <path d="M562 665c-57-54-122-72-194-54" fill="none" stroke="#3A4250" stroke-linecap="round" stroke-width="30"/>
    <path d="M273 631c-39 9-69 38-66 74 3 35 31 53 65 47l74-14c31-6 43-39 21-61-24-25-57-3-94-46Z" fill="#C98761"/>
    <path d="M527 631c39 9 69 38 66 74-3 35-31 53-65 47l-74-14c-31-6-43-39-21-61 24-25 57-3 94-46Z" fill="#C98761"/>
    <path d="M352 591l48 87 48-87" fill="none" stroke="#F28A3A" stroke-linecap="round" stroke-linejoin="round" stroke-width="12"/>
    <path d="M400 586v146" fill="none" stroke="#111827" stroke-linecap="round" stroke-width="8" opacity="0.28"/>
  </g>
</svg>
